<?xml version="1.0" encoding="UTF-8" standalone="no"?>
<svg width="23px" height="32px" viewBox="0 0 23 32" version="1.1" xmlns="http://www.w3.org/2000/svg" xmlns:xlink="http://www.w3.org/1999/xlink">
    <!-- Generator: Sketch 3.6.1 (26313) - http://www.bohemiancoding.com/sketch -->
    <title>cart</title>
    <desc>Created with Sketch.</desc>
    <defs></defs>
    <g id="Page-1" stroke="none" stroke-width="1" fill="none" fill-rule="evenodd">
        <g id="cart" fill="#000000">
            <path d="M21.3364399,8.85704527 L4.30022467,8.85704527 C4.18948927,8.85704527 4.09295072,8.89561538 3.98931374,8.91990027 L3.43847612,6.55140974 C3.36323283,6.22856362 3.07787623,6 2.74708971,6 L0.709842303,6 C0.318009352,6 0,6.31998907 0,6.71426132 C0,7.10853356 0.316589667,7.42852263 0.709842303,7.42852263 L2.18489461,7.42852263 L3.06651875,11.2226788 L4.30022467,17.4281811 C4.30022467,17.4796079 4.32435931,17.5238921 4.33003805,17.5738904 L3.60741858,20.8452072 C3.56056899,21.0566286 3.61167764,21.2780496 3.74654768,21.4466152 C3.88141771,21.6166094 4.08443261,21.713749 4.30022467,21.713749 L20.4051268,21.713749 C20.7969598,21.713749 21.1149691,21.3937599 21.1149691,20.9994877 C21.1149691,20.6052154 20.7969598,20.2852263 20.4051268,20.2852263 L5.18610787,20.2852263 L5.51121564,18.813848 C5.58219987,18.8252762 5.64608568,18.8567037 5.71990928,18.8567037 L18.6603345,18.8567037 C19.4440004,18.8567037 19.9167553,18.7009947 20.2943914,17.7853117 L22.5999592,10.668412 C23.0003103,9.39274126 22.1215255,8.85704527 21.3364399,8.85704527 L21.3364399,8.85704527 Z M4.30022467,24.5707943 C4.30022467,25.0811562 4.57081503,25.5527502 5.01006697,25.8079311 C5.44931892,26.0631121 5.99049963,26.0631121 6.42975158,25.8079311 C6.86900353,25.5527502 7.13959388,25.0811562 7.13959388,24.5707943 C7.13959388,23.781843 6.50397943,23.1422716 5.71990928,23.1422716 C4.93583912,23.1422716 4.30022467,23.781843 4.30022467,24.5707943 L4.30022467,24.5707943 Z M17.0773861,24.5707943 C17.0773861,25.0811562 17.3479765,25.5527502 17.7872284,25.8079311 C18.2264804,26.0631121 18.7676611,26.0631121 19.206913,25.8079311 C19.646165,25.5527502 19.9167553,25.0811562 19.9167553,24.5707943 C19.9167553,23.781843 19.2811409,23.1422716 18.4970707,23.1422716 C17.7130006,23.1422716 17.0773861,23.781843 17.0773861,24.5707943 L17.0773861,24.5707943 Z" id="Shape"></path>
        </g>
    </g>
</svg>