<?xml version="1.0" encoding="utf-8"?>
<svg width="23px" height="32px" viewBox="0 0 23 32" xmlns="http://www.w3.org/2000/svg" xmlns:bx="https://boxy-svg.com">
  <desc>Created with Sketch.</desc>
  <g id="Page-1" style="stroke: none; stroke-width: 1; fill: none; fill-rule: evenodd;" transform="matrix(1, 0, 0, 1.0130529403686523, 0, -0.23872999846935272)">
    <g id="cart" style="fill: rgb(0, 0, 0);">
      <path d="M 21.336 10.669 C 21.336 10.669 4.093 10.708 3.989 10.732 L 3.438 8.363 C 3.363 8.041 3.078 7.812 2.747 7.812 L 0.71 7.812 C 0.318 7.812 0 8.132 0 8.526 C 0 8.921 0.317 9.241 0.71 9.241 L 2.185 9.241 L 3.067 13.035 L 4.3 19.24 C 4.3 19.292 4.324 19.336 4.33 19.386 L 3.607 22.657 C 3.561 22.869 3.612 23.09 3.747 23.259 C 3.881 23.429 4.084 23.526 4.3 23.526 L 20.405 23.526 C 20.797 23.526 21.115 23.206 21.115 22.811 C 21.115 22.417 20.797 22.097 20.405 22.097 L 5.186 22.097 L 5.511 20.626 C 5.582 20.637 5.646 20.669 5.72 20.669 L 18.66 20.669 C 19.444 20.669 19.917 20.513 20.294 19.597 L 22.6 12.48 C 23 11.205 22.122 10.669 21.336 10.669 Z M 4.3 26.383 C 4.3 26.893 4.571 27.365 5.01 27.62 C 5.449 27.875 5.99 27.875 6.43 27.62 C 6.869 27.365 7.14 26.893 7.14 26.383 C 7.14 25.594 6.504 24.954 5.72 24.954 C 4.936 24.954 4.3 25.594 4.3 26.383 L 4.3 26.383 Z M 17.077 26.383 C 17.077 26.893 17.348 27.365 17.787 27.62 C 18.226 27.875 18.768 27.875 19.207 27.62 C 19.646 27.365 19.917 26.893 19.917 26.383 C 19.917 25.594 19.281 24.954 18.497 24.954 C 17.713 24.954 17.077 25.594 17.077 26.383 L 17.077 26.383 Z" id="Shape" bx:origin="0.5 0.5"/>
    </g>
  </g>
  <path d="M 11.059 1 L 11.059 6.356 L 8.674 6.356 L 12.354 9.187 L 15.932 6.356 L 13.6 6.356 L 13.6 1 L 11.059 1 Z" style="stroke: black; fill: rgb(0, 0, 0); stroke-linecap: round; stroke-linejoin: round;" bx:origin="0.5 0.5"/>
  <path d="M 12.664 12.289 Q 12.664 12.289 12.664 12.289 Z" style="stroke: black; fill: none;"/>
</svg>