<?xml version="1.0" encoding="UTF-8" standalone="no"?>
<!-- Generator: IcoMoon.io -->

<svg
   xmlns:dc="http://purl.org/dc/elements/1.1/"
   xmlns:cc="http://creativecommons.org/ns#"
   xmlns:rdf="http://www.w3.org/1999/02/22-rdf-syntax-ns#"
   xmlns:svg="http://www.w3.org/2000/svg"
   xmlns="http://www.w3.org/2000/svg"
   xmlns:sodipodi="http://sodipodi.sourceforge.net/DTD/sodipodi-0.dtd"
   xmlns:inkscape="http://www.inkscape.org/namespaces/inkscape"
   width="32"
   height="32"
   viewBox="0 0 32 32"
   fill="#000000"
   id="svg3406"
   version="1.1"
   inkscape:version="0.91 r13725"
   sodipodi:docname="icon-heart.svg">
  <metadata
     id="metadata3416">
    <rdf:RDF>
      <cc:Work
         rdf:about="">
        <dc:format>image/svg+xml</dc:format>
        <dc:type
           rdf:resource="http://purl.org/dc/dcmitype/StillImage" />
      </cc:Work>
    </rdf:RDF>
  </metadata>
  <defs
     id="defs3414" />
  <sodipodi:namedview
     pagecolor="#ffffff"
     bordercolor="#666666"
     borderopacity="1"
     objecttolerance="10"
     gridtolerance="10"
     guidetolerance="10"
     inkscape:pageopacity="0"
     inkscape:pageshadow="2"
     inkscape:window-width="1920"
     inkscape:window-height="1017"
     id="namedview3412"
     showgrid="false"
     inkscape:zoom="7.375"
     inkscape:cx="16"
     inkscape:cy="16"
     inkscape:window-x="-8"
     inkscape:window-y="-8"
     inkscape:window-maximized="1"
     inkscape:current-layer="svg3406" />
  <g
     id="g3408"
     transform="matrix(1.0038035,0,0,1.0804649,-0.06085542,-3.4705756)">
    <path
       d="M 31.984,13.834 C 31.9,8.926 27.918,4.552 23,4.552 20.156,4.552 17.65,6.04 16,8.224 14.35,6.04 11.844,4.552 9,4.552 c -4.918,0 -8.9,4.374 -8.984,9.282 l -0.016,0 c 0,0.03 0.006,0.058 0.006,0.088 C 0.006,13.944 0,13.966 0,13.99 0,14.128 0.034,14.232 0.04,14.364 0.48,26.872 15.874,32 15.874,32 c 0,0 15.62,-5.122 16.082,-17.616 C 31.964,14.244 32,14.134 32,13.99 32,13.966 31.994,13.944 31.994,13.922 31.994,13.89 32,13.864 32,13.834 l -0.016,0 z"
       id="path3410"
       inkscape:connector-curvature="0" />
  </g>
</svg>
