<?xml version="1.0" encoding="utf-8"?>
<!-- Generator: Adobe Illustrator 19.2.1, SVG Export Plug-In . SVG Version: 6.00 Build 0)  -->
<svg version="1.1" id="Layer_1" xmlns="http://www.w3.org/2000/svg" xmlns:xlink="http://www.w3.org/1999/xlink" x="0px" y="0px"
	 viewBox="0 0 28.4 32" style="enable-background:new 0 0 28.4 32;" xml:space="preserve">
<style type="text/css">
	.st0{fill:none;stroke:#000000;stroke-linecap:round;stroke-linejoin:round;}
</style>
<title>gridview</title>
<desc>Created with Sketch.</desc>
<g id="workspace">
</g>
<g transform="matrix( 1.001556396484375, 0, 0, 0.98309326171875, 0,-18.75) ">
	<g transform="matrix( 0.998443603515625, 0, 0, 1.0171966552734375, 0,19.05) ">
		<path id="Layer0_0_1_STROKES" class="st0" d="M15.8,0.5v10.1l3.4-3.3 M15.8,10.6l-3.4-3.3"/>
	</g>
</g>
<g transform="matrix( 1.001556396484375, 0, 0, 0.98309326171875, 0.05,0.9) ">
	<g>
		<g id="Layer0_0_MEMBER_0_MEMBER_0_FILL">
			<path d="M27.9,10.9c-0.4-0.4-0.8-0.5-1.3-0.5H5.4L5,10.5l-0.7-3C4.1,7.1,3.8,6.8,3.4,6.8H0.8c-0.3,0-0.4,0.1-0.6,0.3S0,7.5,0,7.7
				c0,0.6,0.3,0.9,0.9,0.9h1.9L5.4,21v0.3l-0.9,4c-0.1,0.3,0,0.5,0.2,0.8c0.2,0.2,0.4,0.3,0.7,0.3h20.1c0.3,0,0.4-0.1,0.6-0.3
				c0.2-0.2,0.3-0.4,0.3-0.7s-0.1-0.4-0.3-0.6c-0.2-0.2-0.4-0.3-0.6-0.3h-19l0.4-1.8l0.3,0.1h16.1c0.5,0,1-0.1,1.2-0.3
				c0.4-0.2,0.6-0.5,0.8-1.2l2.9-8.9C28.4,11.9,28.3,11.4,27.9,10.9 M24.8,29.9c0-0.4-0.2-0.9-0.5-1.2s-0.7-0.5-1.2-0.5
				s-1,0.2-1.3,0.5c-0.3,0.4-0.4,0.7-0.4,1.2s0.2,1,0.4,1.3c0.4,0.3,0.8,0.4,1.3,0.4s0.9-0.2,1.2-0.4C24.7,30.8,24.8,30.4,24.8,29.9
				 M5.9,28.6c-0.4,0.4-0.5,0.7-0.5,1.2s0.2,1,0.5,1.3c0.4,0.3,0.7,0.4,1.2,0.4s0.9-0.2,1.2-0.4c0.4-0.4,0.5-0.8,0.5-1.3
				c0-0.4-0.2-0.9-0.5-1.2c-0.3-0.3-0.7-0.5-1.2-0.5S6.2,28.3,5.9,28.6z"/>
		</g>
	</g>
</g>
</svg>
