<?xml version="1.0" encoding="UTF-8" standalone="no"?>
<svg width="23px" height="32px" viewBox="0 0 23 32" version="1.1" xmlns="http://www.w3.org/2000/svg" xmlns:xlink="http://www.w3.org/1999/xlink">
    <!-- Generator: Sketch 3.6.1 (26313) - http://www.bohemiancoding.com/sketch -->
    <title>menu</title>
    <desc>Created with Sketch.</desc>
    <defs></defs>
    <g id="Page-1" stroke="none" stroke-width="1" fill="none" fill-rule="evenodd">
        <g id="menu" fill="#000000">
            <path d="M1.14285714,17.1428571 L21.7142857,17.1428571 C22.3451429,17.1428571 22.8571429,16.6308571 22.8571429,16 C22.8571429,15.3691429 22.3451429,14.8571429 21.7142857,14.8571429 L1.14285714,14.8571429 C0.512,14.8571429 0,15.3691429 0,16 C0,16.6308571 0.512,17.1428571 1.14285714,17.1428571 L1.14285714,17.1428571 Z M1.14285714,10.2857143 L21.7142857,10.2857143 C22.3451429,10.2857143 22.8571429,9.77371429 22.8571429,9.14285714 C22.8571429,8.512 22.3451429,8 21.7142857,8 L1.14285714,8 C0.512,8 0,8.512 0,9.14285714 C0,9.77371429 0.512,10.2857143 1.14285714,10.2857143 L1.14285714,10.2857143 Z M1.14285714,24 L21.7142857,24 C22.3451429,24 22.8571429,23.488 22.8571429,22.8571429 C22.8571429,22.2262857 22.3451429,21.7142857 21.7142857,21.7142857 L1.14285714,21.7142857 C0.512,21.7142857 0,22.2262857 0,22.8571429 C0,23.488 0.512,24 1.14285714,24 L1.14285714,24 Z" id="Shape"></path>
        </g>
    </g>
</svg>