<?xml version="1.0" encoding="UTF-8" standalone="no"?>
<svg width="20px" height="32px" viewBox="0 0 20 32" version="1.1" xmlns="http://www.w3.org/2000/svg" xmlns:xlink="http://www.w3.org/1999/xlink">
    <!-- Generator: Sketch 3.6.1 (26313) - http://www.bohemiancoding.com/sketch -->
    <title>search</title>
    <desc>Created with Sketch.</desc>
    <defs></defs>
    <g id="Page-1" stroke="none" stroke-width="1" fill="none" fill-rule="evenodd">
        <g id="search" fill="#000000">
            <path d="M11.9035904,6 C7.43188117,6 3.80718089,9.61702895 3.80718089,14.0792743 C3.80718089,15.9996556 4.48229689,17.7621804 5.60333821,19.1493297 L0.252234298,24.4891085 C-0.0840780992,24.8247091 -0.0840780992,25.3703709 0.252234298,25.7059715 C0.588546694,26.0415721 1.13536574,26.0415721 1.47167814,25.7059715 L6.82278205,20.3661927 C8.21287329,21.4848614 9.97913618,22.1585486 11.9035904,22.1585486 C16.3752997,22.1585486 20,18.5415196 20,14.0792743 C20,9.61702895 16.3752997,6 11.9035904,6 L11.9035904,6 Z M11.9035904,20.9155833 C8.12568119,20.9155833 5.05278236,17.849188 5.05278236,14.0792743 C5.05278236,10.3093606 8.12568119,7.24296528 11.9035904,7.24296528 C15.6814997,7.24296528 18.7543985,10.3093606 18.7543985,14.0792743 C18.7543985,17.849188 15.6814997,20.9155833 11.9035904,20.9155833 L11.9035904,20.9155833 Z" id="Shape"></path>
        </g>
    </g>
</svg>