
<svg xmlns="http://www.w3.org/2000/svg" version="1.1" xmlns:xlink="http://www.w3.org/1999/xlink" preserveAspectRatio="none" x="0px" y="0px" width="27px" height="32px" viewBox="0 0 27 32">
<defs>
<g id="Layer0_0_FILL">
<path fill="#000000" stroke="none" d="
M 24.95 12.95
L 24.95 10
Q 24.95 9.35 24.3 9.35
L 2.4 9.35
Q 1.75 9.35 1.75 10
L 1.75 12.95
Q 2.85 26.8 3.25 30.3 3.35 31.7 3.4 31.55 3.45 31.65 3.55 31.8 3.75 32 4.05 32
L 22.8 32
Q 23.05 32 23.25 31.8 23.4 31.65 23.35 31.65 23.45 31.7 23.6 30.3 23.65 29.55 23.8 28.35
L 23.8 28.25
Q 24.15 23.75 24.95 12.95
M 26.7 6.6
Q 26.55 4.1 24.9 3.7
L 20.1 3.2
Q 19.15 3.15 18.65 0.7 18.4 -0.1 16.85 0
L 9.85 0
Q 8.3 -0.1 8.1 0.7 7.55 3.15 6.6 3.2
L 1.8 3.7
Q 0.15 4.1 0 6.6
L 26.7 6.6 Z"/>
</g>
</defs>

<g transform="matrix( 1.01123046875, 0, 0, 1, 0,0) ">
<use xlink:href="#Layer0_0_FILL"/>
</g>
</svg>
